<?xml version="1.0" encoding="UTF-8"?>
<svg version="1.1" xmlns="http://www.w3.org/2000/svg" width="287" height="239">
<path d="M0 0 C94.71 0 189.42 0 287 0 C287 78.87 287 157.74 287 239 C192.29 239 97.58 239 0 239 C0 160.13 0 81.26 0 0 Z " fill="#FDFDFC" transform="translate(0,0)"/>
<path d="M0 0 C0.94230469 -0.04769531 1.88460937 -0.09539063 2.85546875 -0.14453125 C3.70753906 -0.19351563 4.55960938 -0.2425 5.4375 -0.29296875 C9.32597641 0.48822441 11.84440497 1.97086606 14.04296875 5.23046875 C14.957246 9.68837622 14.85937838 14.09577613 14.8046875 18.6328125 C14.80974052 20.59849937 14.80974052 20.59849937 14.81489563 22.60389709 C14.81922073 25.37399751 14.80244393 28.14293122 14.77026367 30.9128418 C14.73051814 34.45182057 14.7397701 37.98860785 14.76449871 41.5276556 C14.78214997 44.91708189 14.76068079 48.30588753 14.7421875 51.6953125 C14.7491716 52.96108627 14.7561557 54.22686005 14.76335144 55.5309906 C14.60651745 65.31554351 14.60651745 65.31554351 11.61987305 69.01464844 C2.67987713 76.70194383 -14.71855814 74.29976283 -25.95703125 74.23046875 C-25.19376496 78.02369836 -24.42001284 81.81471918 -23.64453125 85.60546875 C-23.43119141 86.66636719 -23.21785156 87.72726563 -22.99804688 88.8203125 C-21.79398617 94.67887654 -20.38764472 100.3773042 -18.60620117 106.08642578 C-16.8425969 111.91116165 -14.97276839 119.18428262 -15.95703125 125.23046875 C-17.55358406 128.0466599 -18.38088379 129.41630408 -20.95703125 131.23046875 C-25.05594268 132.19828306 -29.13269766 132.29943917 -33.33203125 132.41796875 C-45.11752358 132.50087697 -45.11752358 132.50087697 -54.95703125 138.23046875 C-59.31905659 139.46286253 -63.82819287 139.51787498 -68.33203125 139.73046875 C-77.87925725 139.47361995 -77.87925725 139.47361995 -85.76171875 143.21484375 C-89.30517904 146.46826993 -93.42370271 146.16817857 -98.08203125 146.48046875 C-98.98179687 146.5578125 -99.8815625 146.63515625 -100.80859375 146.71484375 C-117.69272837 148.07333734 -117.69272837 148.07333734 -121.95703125 145.23046875 C-123.9061618 145.00428585 -123.9061618 145.00428585 -126.01171875 145.140625 C-126.79160156 145.16060547 -127.57148437 145.18058594 -128.375 145.20117188 C-130.00537035 145.26208396 -131.63559114 145.32714907 -133.265625 145.39648438 C-138.26947496 145.51601621 -140.6637389 144.95339578 -144.95703125 142.23046875 C-148.04186354 142.08467372 -148.04186354 142.08467372 -151.33203125 142.54296875 C-156.57054387 143.02321174 -161.76225137 143.44584517 -167.01953125 143.60546875 C-168.22738281 143.65445313 -169.43523437 143.7034375 -170.6796875 143.75390625 C-174.93640033 143.07404985 -176.35025182 141.59514516 -178.95703125 138.23046875 C-180.26703258 130.72773384 -177.60556286 125.4150341 -174.4921875 118.62890625 C-172.65521891 114.56233456 -171.27823677 110.48768653 -169.95703125 106.23046875 C-170.5809375 105.94042969 -171.20484375 105.65039062 -171.84765625 105.3515625 C-174.91099999 103.72345203 -175.63550472 102.46820874 -176.95703125 99.23046875 C-177.04255537 97.33508315 -177.06307544 95.43617122 -177.03515625 93.5390625 C-177.02387695 92.54575928 -177.01259766 91.55245605 -177.00097656 90.52905273 C-176.98647461 89.77052002 -176.97197266 89.0119873 -176.95703125 88.23046875 C-177.69751709 88.29105469 -178.43800293 88.35164063 -179.20092773 88.4140625 C-182.59850492 88.68992168 -185.99650233 88.96023324 -189.39453125 89.23046875 C-190.55919922 89.32585937 -191.72386719 89.42125 -192.92382812 89.51953125 C-196.26693441 89.78321287 -199.61075288 90.01127795 -202.95703125 90.23046875 C-203.84148926 90.30910156 -204.72594727 90.38773437 -205.63720703 90.46875 C-209.27562869 90.67997912 -211.53759257 90.48907346 -214.66552734 88.56054688 C-218.78288661 84.07738947 -217.6441257 77.24815346 -217.5859375 71.57421875 C-217.58676685 70.22570606 -217.58922875 68.87719348 -217.59324646 67.52868652 C-217.59609977 64.70745278 -217.58145133 61.88701501 -217.55395508 59.06591797 C-217.5198711 55.45759449 -217.52589382 51.85069354 -217.54461765 48.24230194 C-217.55520869 45.45916988 -217.54623116 42.67636632 -217.53123283 39.89326477 C-217.52356121 37.91856201 -217.53089145 35.94381934 -217.53846741 33.96911621 C-217.52263107 32.76436646 -217.50679474 31.5596167 -217.49047852 30.31835938 C-217.48427994 29.26088501 -217.47808136 28.20341064 -217.47169495 27.1138916 C-216.82531518 23.49252446 -215.52159216 21.82788441 -212.95703125 19.23046875 C-205.90248162 16.43526984 -197.40222724 16.0707051 -189.95703125 17.23046875 C-185.6441399 19.4957259 -185.6441399 19.4957259 -183.95703125 22.23046875 C-183.09729424 26.17124234 -183.07220336 30.02090533 -183.08203125 34.04296875 C-183.06140625 35.11740234 -183.04078125 36.19183594 -183.01953125 37.29882812 C-182.97251514 39.94348429 -182.95258215 42.58548085 -182.95703125 45.23046875 C-182.85156982 44.66126709 -182.7461084 44.09206543 -182.63745117 43.50561523 C-182.14816957 40.8914232 -181.64644838 38.27976299 -181.14453125 35.66796875 C-180.97888672 34.77271484 -180.81324219 33.87746094 -180.64257812 32.95507812 C-179.40367458 26.57355608 -178.20192378 21.0014371 -174.0234375 15.84375 C-169.17129519 13.29096685 -164.29940606 13.51110088 -158.89453125 13.41796875 C-157.80591797 13.37994141 -156.71730469 13.34191406 -155.59570312 13.30273438 C-147.51262835 13.06894698 -147.51262835 13.06894698 -144.80297852 13.85668945 C-144.19381592 13.98003662 -143.58465332 14.10338379 -142.95703125 14.23046875 C-141.96703125 13.57046875 -140.97703125 12.91046875 -139.95703125 12.23046875 C-133.78789457 10.93516388 -127.48108756 10.64488181 -121.20703125 10.16796875 C-119.51320312 10.03165039 -119.51320312 10.03165039 -117.78515625 9.89257812 C-99.11891111 8.45588217 -99.11891111 8.45588217 -94.95703125 11.23046875 C-91.5363605 11.04043149 -89.93092698 10.21132562 -87.14453125 8.16796875 C-83.25453445 5.79601948 -79.26446805 5.85197038 -74.83203125 5.85546875 C-73.79212036 5.85341431 -73.79212036 5.85341431 -72.73120117 5.85131836 C-68.69676222 5.93711623 -65.61787109 6.57437454 -61.95703125 8.23046875 C-59.30470924 7.98181356 -57.97749 7.24449761 -55.76953125 5.73046875 C-49.47578178 2.37380237 -41.69446935 3.11795179 -34.70703125 3.04296875 C-33.92626221 3.02983643 -33.14549316 3.0167041 -32.34106445 3.00317383 C-28.03825501 2.99717012 -24.91958274 3.37534165 -20.95703125 5.23046875 C-18.37858715 5.00295898 -17.35477447 4.69013607 -15.65234375 2.72265625 C-11.75137591 -0.71091452 -4.9602471 0.38659786 0 0 Z " fill="#86B045" transform="translate(239.95703125,40.76953125)"/>
<path d="M0 0 C4.84296739 2.33179911 7.9133152 5.62719654 11 10 C14.60940872 20.39913562 14.27587873 32.11216315 10.3359375 42.3671875 C7.81664574 47.33210752 4.68728069 51.64296789 -0.3515625 54.1875 C-6.270066 56.00320609 -12.65001513 55.95740124 -18.375 53.625 C-24.87763509 47.12236491 -28.13847637 40.07314362 -28.25 30.9375 C-28.23280253 20.70623378 -26.29212875 12.47443197 -19 5 C-13.29699765 -0.14020606 -7.53358813 -1.23634038 0 0 Z " fill="#F9FBF4" transform="translate(171,56)"/>
<path d="M0 0 C4.62 0 9.24 0 14 0 C14 17.49 14 34.98 14 53 C7 54 7 54 -1 54 C-1 47.07 -1 40.14 -1 33 C-3.31 33 -5.62 33 -8 33 C-8 39.93 -8 46.86 -8 54 C-17 56 -17 56 -22 56 C-22 38.18 -22 20.36 -22 2 C-15 1 -15 1 -7 1 C-7 6.94 -7 12.88 -7 19 C-4.69 19 -2.38 19 0 19 C0 12.73 0 6.46 0 0 Z " fill="#FDFEFC" transform="translate(125,60)"/>
<path d="M0 0 C5.77480215 5.14710626 5.77480215 5.14710626 6.30859375 9.5390625 C6.59543075 16.40576642 5.97484673 20.36322562 1.5078125 25.671875 C0 27 0 27 -2 27 C-1.44570312 28.08539063 -0.89140625 29.17078125 -0.3203125 30.2890625 C0.41167367 31.73426596 1.14343248 33.17958458 1.875 34.625 C2.23980469 35.33785156 2.60460937 36.05070312 2.98046875 36.78515625 C5.00000927 40.78751837 6.7081111 44.68917073 8 49 C5.17641398 50.41179301 2.70914537 50.28379289 -0.4375 50.375 C-1.59121094 50.42398438 -2.74492187 50.47296875 -3.93359375 50.5234375 C-7 50 -7 50 -8.8046875 47.73046875 C-9.19914062 46.82941406 -9.59359375 45.92835937 -10 45 C-10.46986328 43.96166016 -10.46986328 43.96166016 -10.94921875 42.90234375 C-11.19285156 42.25394531 -11.43648437 41.60554688 -11.6875 40.9375 C-11.93886719 40.28652344 -12.19023437 39.63554688 -12.44921875 38.96484375 C-13 37 -13 37 -13 33 C-13.66 33 -14.32 33 -15 33 C-15 38.94 -15 44.88 -15 51 C-18 52 -18 52 -29 52 C-29 34.51 -29 17.02 -29 -1 C-7.67567568 -4.28066528 -7.67567568 -4.28066528 0 0 Z " fill="#FAFCF5" transform="translate(218,56)"/>
<path d="M0 0 C5.61 0 11.22 0 17 0 C19.1930871 5.98114665 20.56318562 11.69195655 21.53125 17.984375 C21.98436142 20.89939178 22.49989859 23.79175743 23.0625 26.6875 C23.21847656 27.49574219 23.37445313 28.30398437 23.53515625 29.13671875 C23.83073328 31.00237285 23.83073328 31.00237285 25 32 C26.44000425 38.93002043 27.29621627 45.96216266 28 53 C23.05 53 18.1 53 13 53 C13 51.02 13 49.04 13 47 C8.05 47.495 8.05 47.495 3 48 C2.34 50.31 1.68 52.62 1 55 C-3.62 55 -8.24 55 -13 55 C-9.85520806 37.25438837 -9.85520806 37.25438837 -7.5625 30.9375 C-5.85817952 26.05577802 -5.02507598 21.04617116 -4.13183594 15.97045898 C-3.145333 10.47896934 -1.73780518 5.29616816 0 0 Z " fill="#FAFCF6" transform="translate(72,64)"/>
<path d="M0 0 C0.15855469 1.01835938 0.31710938 2.03671875 0.48046875 3.0859375 C1.76826549 11.00371276 3.36030761 18.67537336 5.625 26.375 C7.54603739 32.91523995 8.83390914 39.14497707 9 46 C5.6620111 46.75297441 2.60714911 47.11353954 -0.8125 47.0625 C-1.60269531 47.05347656 -2.39289063 47.04445312 -3.20703125 47.03515625 C-3.79871094 47.02355469 -4.39039063 47.01195312 -5 47 C-5 45.35 -5 43.7 -5 42 C-7.97 42 -10.94 42 -14 42 C-14 43.98 -14 45.96 -14 48 C-15.45742463 48.08096803 -16.91612807 48.13917774 -18.375 48.1875 C-19.18710938 48.22230469 -19.99921875 48.25710937 -20.8359375 48.29296875 C-21.55007812 48.19628906 -22.26421875 48.09960938 -23 48 C-25.87693875 43.68459187 -25.46092988 40.07022869 -25 35 C-24.37656841 31.93915198 -23.61153499 28.95067024 -22.7890625 25.9375 C-22.08007947 23.29811763 -21.50754954 20.68399078 -21 18 C-19.8998053 12.27525808 -18.4544945 6.64343867 -17 1 C-14.9168207 0.83141902 -12.83344956 0.66520745 -10.75 0.5 C-9.58984375 0.4071875 -8.4296875 0.314375 -7.234375 0.21875 C-4.82731342 0.05595356 -2.41256049 0 0 0 Z " fill="#F9FBF3" transform="translate(205,117)"/>
<path d="M0 0 C0.80373047 -0.020625 1.60746094 -0.04125 2.43554688 -0.0625 C7.48146281 -0.09550681 10.95493119 0.42328741 15.3125 3.25 C18.41215196 7.48619101 18.93273738 11.64320601 18.81640625 16.76953125 C17.96835908 20.94402703 15.40709452 23.46854898 12.3125 26.25 C13.38243422 29.0482895 14.53091566 31.66162952 15.9375 34.3125 C17.3125 37.25 17.3125 37.25 17.3125 41.25 C17.9725 41.25 18.6325 41.25 19.3125 41.25 C19.8075 43.23 19.8075 43.23 20.3125 45.25 C15.6925 45.58 11.0725 45.91 6.3125 46.25 C4.3325 41.3 2.3525 36.35 0.3125 31.25 C-0.0175 36.53 -0.3475 41.81 -0.6875 47.25 C-3.6575 47.25 -6.6275 47.25 -9.6875 47.25 C-9.6875 43.95 -9.6875 40.65 -9.6875 37.25 C-10.6775 36.92 -11.6675 36.59 -12.6875 36.25 C-12.0275 36.25 -11.3675 36.25 -10.6875 36.25 C-10.69910156 35.31542969 -10.71070313 34.38085938 -10.72265625 33.41796875 C-10.77681258 25.53435407 -10.64490017 17.68727401 -10.25 9.8125 C-10.21076416 8.97807373 -10.17152832 8.14364746 -10.13110352 7.28393555 C-9.68292806 -0.96989083 -7.57497649 0.04745483 0 0 Z " fill="#F9FCF3" transform="translate(160.6875,124.75)"/>
<path d="M0 0 C-0.6535623 4.26920524 -2.11912678 7.80493993 -3.90625 11.7265625 C-4.19101196 12.35605804 -4.47577393 12.98555359 -4.76916504 13.63412476 C-5.67455073 15.6333476 -6.58693799 17.6292729 -7.5 19.625 C-8.4117468 21.6284373 -9.32200939 23.63253447 -10.23083496 25.63729858 C-11.05410253 27.45168411 -11.88144128 29.26422071 -12.70898438 31.07666016 C-14.04448815 33.97683642 -14.04448815 33.97683642 -15 37 C-13.7625 36.7525 -13.7625 36.7525 -12.5 36.5 C-8.58727683 35.94103955 -4.94816827 35.93192813 -1 36 C-0.97312721 37.81242052 -0.95366285 39.62495233 -0.9375 41.4375 C-0.92589844 42.44683594 -0.91429687 43.45617187 -0.90234375 44.49609375 C-1 47 -1 47 -2 48 C-3.59786618 48.2280257 -5.20454415 48.3949777 -6.8125 48.53515625 C-8.30330078 48.66567383 -8.30330078 48.66567383 -9.82421875 48.79882812 C-11.39623047 48.9293457 -11.39623047 48.9293457 -13 49.0625 C-14.01707031 49.15337891 -15.03414062 49.24425781 -16.08203125 49.33789062 C-22.07971251 49.84988781 -27.98108676 50.09404552 -34 50 C-32.74469937 44.34319162 -30.3314982 39.05209636 -28.1875 33.6875 C-27.74857422 32.57181641 -27.30964844 31.45613281 -26.85742188 30.30664062 C-24.58221018 24.60339824 -22.23394529 19.22406547 -19 14 C-22.96 13.67 -26.92 13.34 -31 13 C-31 9.37 -31 5.74 -31 2 C-27.33368766 1.66231334 -23.66703019 1.32972082 -20 1 C-18.97003906 0.90460938 -17.94007812 0.80921875 -16.87890625 0.7109375 C-11.22521274 0.20678649 -5.67585202 -0.109151 0 0 Z " fill="#F8FBF1" transform="translate(104,125)"/>
<path d="M0 0 C0 13.2 0 26.4 0 40 C3.96 40 7.92 40 12 40 C11.01 44.29 10.02 48.58 9 53 C6.31306278 53.33851178 3.62559711 53.670936 0.9375 54 C-0.19075195 54.14308594 -0.19075195 54.14308594 -1.34179688 54.2890625 C-2.08623047 54.37929687 -2.83066406 54.46953125 -3.59765625 54.5625 C-4.27320557 54.64628906 -4.94875488 54.73007813 -5.64477539 54.81640625 C-8.75435073 55.05880292 -11.88099136 55 -15 55 C-15 37.18 -15 19.36 -15 1 C-7 0 -7 0 0 0 Z " fill="#FDFDFB" transform="translate(47,67)"/>
<path d="M0 0 C0.02687279 1.81242052 0.04633715 3.62495233 0.0625 5.4375 C0.07410156 6.44683594 0.08570312 7.45617187 0.09765625 8.49609375 C0 11 0 11 -1 12 C-2.68608966 12.07205511 -4.37500659 12.08386068 -6.0625 12.0625 C-6.98160156 12.05347656 -7.90070313 12.04445312 -8.84765625 12.03515625 C-9.55792969 12.02355469 -10.26820312 12.01195312 -11 12 C-11 14.31 -11 16.62 -11 19 C-8.03 19 -5.06 19 -2 19 C-2 22.3 -2 25.6 -2 29 C-4.97 29 -7.94 29 -11 29 C-11 31.64 -11 34.28 -11 37 C-7.7 37 -4.4 37 -1 37 C-1 40.63 -1 44.26 -1 48 C-8.68931285 49.06059488 -16.24506486 49.09928082 -24 49 C-22.515 48.505 -22.515 48.505 -21 48 C-21 42.39 -21 36.78 -21 31 C-21.99 31 -22.98 31 -24 31 C-24.08782542 27.47932649 -24.14066643 23.95893856 -24.1875 20.4375 C-24.21263672 19.44685547 -24.23777344 18.45621094 -24.26367188 17.43554688 C-24.32197737 11.58556191 -24.29497683 6.95931073 -21 2 C-17.890625 0.87890625 -17.890625 0.87890625 -14.25 0.5625 C-13.05890625 0.44003906 -11.8678125 0.31757812 -10.640625 0.19140625 C-7.08548259 0.00449426 -3.55930821 -0.04106894 0 0 Z " fill="#FBFCF6" transform="translate(126,127)"/>
<path d="M0 0 C0.69287109 0.00451172 1.38574219 0.00902344 2.09960938 0.01367188 C3.79561068 0.02536844 5.49156703 0.04330076 7.1875 0.0625 C7.1875 3.6925 7.1875 7.3225 7.1875 11.0625 C3.5575 11.0625 -0.0725 11.0625 -3.8125 11.0625 C-3.8125 13.3725 -3.8125 15.6825 -3.8125 18.0625 C-0.5125 18.0625 2.7875 18.0625 6.1875 18.0625 C6.1875 21.3625 6.1875 24.6625 6.1875 28.0625 C1.2375 28.5575 1.2375 28.5575 -3.8125 29.0625 C-3.8125 31.3725 -3.8125 33.6825 -3.8125 36.0625 C-0.1825 36.0625 3.4475 36.0625 7.1875 36.0625 C7.1875 39.6925 7.1875 43.3225 7.1875 47.0625 C-0.51652087 47.98238309 -8.05713474 48.1719017 -15.8125 48.0625 C-14.3275 47.5675 -14.3275 47.5675 -12.8125 47.0625 C-12.8125 41.7825 -12.8125 36.5025 -12.8125 31.0625 C-14.1325 31.0625 -15.4525 31.0625 -16.8125 31.0625 C-16.8125 30.0725 -16.8125 29.0825 -16.8125 28.0625 C-15.8225 28.0625 -14.8325 28.0625 -13.8125 28.0625 C-13.8125 23.1125 -13.8125 18.1625 -13.8125 13.0625 C-14.8025 13.0625 -15.7925 13.0625 -16.8125 13.0625 C-16.8125 12.4025 -16.8125 11.7425 -16.8125 11.0625 C-15.4925 11.0625 -14.1725 11.0625 -12.8125 11.0625 C-12.8125 7.7625 -12.8125 4.4625 -12.8125 1.0625 C-8.52952469 0.00630997 -4.38264354 -0.05452092 0 0 Z " fill="#F6FAED" transform="translate(140.8125,129.9375)"/>
<path d="M0 0 C4.62 0 9.24 0 14 0 C14 17.49 14 34.98 14 53 C9.38 53.33 4.76 53.66 0 54 C0 36.18 0 18.36 0 0 Z " fill="#FAFDF5" transform="translate(230,51)"/>
<path d="M0 0 C3.93748458 -0.02898816 7.87494179 -0.04679464 11.8125 -0.0625 C12.93205078 -0.07087891 14.05160156 -0.07925781 15.20507812 -0.08789062 C16.81479492 -0.09272461 16.81479492 -0.09272461 18.45703125 -0.09765625 C19.9416687 -0.10551147 19.9416687 -0.10551147 21.45629883 -0.11352539 C24 0 24 0 27 1 C26.67 1.66 26.34 2.32 26 3 C25.01 2.67 24.02 2.34 23 2 C21.59175107 1.91978001 20.18002769 1.89234023 18.76953125 1.90234375 C17.96708984 1.90556641 17.16464844 1.90878906 16.33789062 1.91210938 C15.50451172 1.92048828 14.67113281 1.92886719 13.8125 1.9375 C12.96751953 1.94201172 12.12253906 1.94652344 11.25195312 1.95117188 C9.16793845 1.96294597 7.08396023 1.9808811 5 2 C4.69018003 6.96584143 4.38717196 11.93203279 4.09057617 16.89868164 C3.9886264 18.58955195 3.88478887 20.28030951 3.77905273 21.97094727 C3.62772602 24.39572696 3.48310871 26.8208261 3.33984375 29.24609375 C3.26648048 30.38672523 3.26648048 30.38672523 3.19163513 31.55039978 C3.0877321 33.36508384 3.03827902 35.18274691 3 37 C3.33 37.33 3.66 37.66 4 38 C4.07205511 39.68608966 4.08386068 41.37500659 4.0625 43.0625 C4.05347656 43.98160156 4.04445312 44.90070313 4.03515625 45.84765625 C4.02355469 46.55792969 4.01195312 47.26820313 4 48 C6.31 48 8.62 48 11 48 C11 48.33 11 48.66 11 49 C8.03 49 5.06 49 2 49 C1.67 50.65 1.34 52.3 1 54 C-7.01659634 55.12513633 -14.92138585 55.09579384 -23 55 C-22.83628906 54.45859375 -22.67257813 53.9171875 -22.50390625 53.359375 C-21.91409413 50.59777407 -21.90390692 48.07181861 -21.9375 45.25 C-21.95103516 43.77273437 -21.95103516 43.77273437 -21.96484375 42.265625 C-21.97644531 41.51796875 -21.98804687 40.7703125 -22 40 C-25.3 40 -28.6 40 -32 40 C-32 37.36 -32 34.72 -32 32 C-29.03 32 -26.06 32 -23 32 C-23 28.7 -23 25.4 -23 22 C-25.97 22 -28.94 22 -32 22 C-32 19.69 -32 17.38 -32 15 C-28.7 14.67 -25.4 14.34 -22 14 C-21.67 10.37 -21.34 6.74 -21 3 C-20.67 3.66 -20.34 4.32 -20 5 C-10.1 4.505 -10.1 4.505 0 4 C0 2.68 0 1.36 0 0 Z M-19 7 C-19 10.3 -19 13.6 -19 17 C-20.32 17 -21.64 17 -23 17 C-23 17.66 -23 18.32 -23 19 C-22.01 19 -21.02 19 -20 19 C-20 23.95 -20 28.9 -20 34 C-20.99 34 -21.98 34 -23 34 C-23 34.99 -23 35.98 -23 37 C-21.68 37 -20.36 37 -19 37 C-19 42.28 -19 47.56 -19 53 C-20.485 53.495 -20.485 53.495 -22 54 C-14.24463474 54.1094017 -6.70402087 53.91988309 1 53 C1 49.37 1 45.74 1 42 C-2.63 42 -6.26 42 -10 42 C-10 39.69 -10 37.38 -10 35 C-6.7 34.67 -3.4 34.34 0 34 C0 30.7 0 27.4 0 24 C-3.3 24 -6.6 24 -10 24 C-10 21.69 -10 19.38 -10 17 C-6.37 17 -2.74 17 1 17 C1 13.37 1 9.74 1 6 C-1.39591038 5.97287649 -3.79150957 5.9531018 -6.1875 5.9375 C-6.86103516 5.92912109 -7.53457031 5.92074219 -8.22851562 5.91210938 C-11.95434131 5.89393462 -15.3788042 6.10700608 -19 7 Z " fill="#9DB972" transform="translate(147,124)"/>
<path d="M0 0 C0.33 1.32 0.66 2.64 1 4 C-0.65 4 -2.3 4 -4 4 C-4 5.32 -4 6.64 -4 8 C-3.360625 8.309375 -2.72125 8.61875 -2.0625 8.9375 C0 10 0 10 1 11 C0.4 17.6 0.4 17.6 -2 20 C-4.5 20.25 -4.5 20.25 -7 20 C-7.66 19.34 -8.32 18.68 -9 18 C-9.33 18.66 -9.66 19.32 -10 20 C-12.64 20 -15.28 20 -18 20 C-18 14.06 -18 8.12 -18 2 C-15.36 1.67 -12.72 1.34 -10 1 C-10 1.99 -10 2.98 -10 4 C-9.278125 3.34 -8.55625 2.68 -7.8125 2 C-4.78402067 -0.1535853 -3.60296594 -0.41176754 0 0 Z " fill="#E6E5E0" transform="translate(144,197)"/>
<path d="M0 0 C1.65 1.32 3.3 2.64 5 4 C3.68 4 2.36 4 1 4 C-1.11894305 10.14148941 -1.42311768 15.97305973 -1.625 22.4375 C-1.68300781 23.96407227 -1.68300781 23.96407227 -1.7421875 25.52148438 C-1.83580872 28.01414936 -1.92153993 30.5068195 -2 33 C-1.01 33 -0.02 33 1 33 C1 38.61 1 44.22 1 50 C2.32 50.66 3.64 51.32 5 52 C2.36 52 -0.28 52 -3 52 C-3.33 51.34 -3.66 50.68 -4 50 C-7.04581269 49.53045739 -7.04581269 49.53045739 -10.5625 49.375 C-11.76003906 49.30023438 -12.95757812 49.22546875 -14.19140625 49.1484375 C-15.11824219 49.09945312 -16.04507813 49.05046875 -17 49 C-17 48.67 -17 48.34 -17 48 C-12.05 47.67 -7.1 47.34 -2 47 C-1.67 43.37 -1.34 39.74 -1 36 C-5.62 36.33 -10.24 36.66 -15 37 C-14.11044288 32.55221438 -12.95509769 29.35793656 -11.09375 25.2734375 C-10.80898804 24.64394196 -10.52422607 24.01444641 -10.23083496 23.36587524 C-9.32544927 21.3666524 -8.41306201 19.3707271 -7.5 17.375 C-6.5882532 15.3715627 -5.67799061 13.36746553 -4.76916504 11.36270142 C-3.94589747 9.54831589 -3.11855872 7.73577929 -2.29101562 5.92333984 C-0.95551185 3.02316358 -0.95551185 3.02316358 0 0 Z " fill="#89B04F" transform="translate(104,125)"/>
<path d="M0 0 C4.75 0.75 4.75 0.75 7 3 C7.47403036 6.06088176 7.37037601 9.15655247 7.375 12.25 C7.39949219 13.09691406 7.42398438 13.94382812 7.44921875 14.81640625 C7.47586628 20.52785934 6.65518419 23.57910529 3 28 C1.125 27.75 1.125 27.75 -1 27 C-3.84341866 23.19879822 -3.33068141 18.58967179 -3.3125 14.0625 C-3.32861328 13.26392578 -3.34472656 12.46535156 -3.36132812 11.64257812 C-3.36525002 6.90884489 -2.98421593 3.89759072 0 0 Z " fill="#85AF48" transform="translate(162,70)"/>
<path d="M0 0 C0 13.2 0 26.4 0 40 C1.32 40.33 2.64 40.66 4 41 C2.02 41 0.04 41 -2 41 C-2 28.13 -2 15.26 -2 2 C-5.63 2 -9.26 2 -13 2 C-13 18.83 -13 35.66 -13 53 C-7.72 53 -2.44 53 3 53 C3 53.33 3 53.66 3 54 C-2.94 54.33 -8.88 54.66 -15 55 C-15 37.18 -15 19.36 -15 1 C-7 0 -7 0 0 0 Z " fill="#DFEDC9" transform="translate(47,67)"/>
<path d="M0 0 C2.64 0 5.28 0 8 0 C8 0.99 8 1.98 8 3 C8.99 3 9.98 3 11 3 C11 7.95 11 12.9 11 18 C10.01 18 9.02 18 8 18 C8 18.99 8 19.98 8 21 C9.32 21 10.64 21 12 21 C12 26.28 12 31.56 12 37 C18.6 37 25.2 37 32 37 C32 37.33 32 37.66 32 38 C23.98340366 39.12513633 16.07861415 39.09579384 8 39 C8.16371094 38.45859375 8.32742187 37.9171875 8.49609375 37.359375 C9.08590587 34.59777407 9.09609308 32.07181861 9.0625 29.25 C9.04896484 27.77273437 9.04896484 27.77273437 9.03515625 26.265625 C9.02355469 25.51796875 9.01195313 24.7703125 9 24 C5.7 24 2.4 24 -1 24 C-1 21.36 -1 18.72 -1 16 C2.3 16 5.6 16 9 16 C9 12.37 9 8.74 9 5 C6.03 5 3.06 5 0 5 C0 3.35 0 1.7 0 0 Z " fill="#89AB52" transform="translate(116,140)"/>
<path d="M0 0 C1.32 0.33 2.64 0.66 4 1 C3.93417725 2.05501709 3.86835449 3.11003418 3.80053711 4.19702148 C3.55858639 8.09726264 3.32352146 11.99789312 3.09057617 15.89868164 C2.9886264 17.58955195 2.88478887 19.28030951 2.77905273 20.97094727 C2.62772602 23.39572696 2.48310871 25.8208261 2.33984375 28.24609375 C2.29093491 29.00651474 2.24202606 29.76693573 2.19163513 30.55039978 C2.0877321 32.36508384 2.03827902 34.18274691 2 36 C2.33 36.33 2.66 36.66 3 37 C3.07205511 38.68608966 3.08386068 40.37500659 3.0625 42.0625 C3.05347656 42.98160156 3.04445312 43.90070313 3.03515625 44.84765625 C3.02355469 45.55792969 3.01195312 46.26820313 3 47 C5.31 47 7.62 47 10 47 C10 47.33 10 47.66 10 48 C7.03 48 4.06 48 1 48 C0.67 49.32 0.34 50.64 0 52 C0 48.37 0 44.74 0 41 C-3.63 41 -7.26 41 -11 41 C-11 38.69 -11 36.38 -11 34 C-6.05 33.505 -6.05 33.505 -1 33 C-1 29.7 -1 26.4 -1 23 C-2.65 23 -4.3 23 -6 23 C-6 22.67 -6 22.34 -6 22 C-4.35 22 -2.7 22 -1 22 C-1 20.68 -1 19.36 -1 18 C-0.01 18 0.98 18 2 18 C2 12.72 2 7.44 2 2 C1.34 2 0.68 2 0 2 C0 1.34 0 0.68 0 0 Z " fill="#A8C07E" transform="translate(148,125)"/>
<path d="M0 0 C4.62 0 9.24 0 14 0 C14 17.49 14 34.98 14 53 C7 54 7 54 -1 54 C-1 47.07 -1 40.14 -1 33 C-2.65 33 -4.3 33 -6 33 C-6 32.67 -6 32.34 -6 32 C-3.69 32 -1.38 32 1 32 C1 38.6 1 45.2 1 52 C6.445 51.505 6.445 51.505 12 51 C12 34.5 12 18 12 1 C8.37 1 4.74 1 1 1 C1 6.94 1 12.88 1 19 C0.67 19 0.34 19 0 19 C0 12.73 0 6.46 0 0 Z " fill="#E9F3D5" transform="translate(125,60)"/>
<path d="M0 0 C8 0 8 0 10.5 2.0625 C12.36986505 5.72431906 12.50848176 7.93214595 12 12 C10.71419959 14.89305092 9.71570925 16.49900353 7.125 18.3125 C5 19 5 19 0 19 C0 12.73 0 6.46 0 0 Z " fill="#3C3A25" transform="translate(111,200)"/>
<path d="M0 0 C8 0 8 0 11 2 C11.43359375 4.93359375 11.43359375 4.93359375 11.4375 8.4375 C11.45683594 9.59121094 11.47617188 10.74492187 11.49609375 11.93359375 C11 15 11 15 9.41015625 16.84765625 C7 18 7 18 0 19 C0 12.73 0 6.46 0 0 Z " fill="#48462F" transform="translate(214,192)"/>
<path d="M0 0 C1.32 0 2.64 0 4 0 C4 6.27 4 12.54 4 19 C2.68 19 1.36 19 0 19 C-0.99 16.69 -1.98 14.38 -3 12 C-3.33 14.31 -3.66 16.62 -4 19 C-5.32 19 -6.64 19 -8 19 C-8 13.06 -8 7.12 -8 1 C-6.68 1 -5.36 1 -4 1 C-3.01 3.31 -2.02 5.62 -1 8 C-0.67 5.36 -0.34 2.72 0 0 Z " fill="#343322" transform="translate(85,202)"/>
<path d="M0 0 C0.33 0 0.66 0 1 0 C1 17.82 1 35.64 1 54 C7.93 53.01 7.93 53.01 15 52 C15 45.07 15 38.14 15 31 C17.31 31 19.62 31 22 31 C22 37.93 22 44.86 22 52 C21.67 52 21.34 52 21 52 C21 45.4 21 38.8 21 32 C19.68 32 18.36 32 17 32 C17 38.93 17 45.86 17 53 C12.17758985 54.92896406 9.73746701 55.21939191 4.6875 55.125 C2.80611328 55.09792969 2.80611328 55.09792969 0.88671875 55.0703125 C-0.54220703 55.03550781 -0.54220703 55.03550781 -2 55 C-2.5321441 52.91952703 -3.05031786 50.83547707 -3.5625 48.75 C-3.85253906 47.58984375 -4.14257812 46.4296875 -4.44140625 45.234375 C-4.95179964 42.27909017 -5.02996165 40.75565899 -4 38 C-1.95557672 41.54366701 -1.73299562 43.60202629 -1 48 C-0.67 32.16 -0.34 16.32 0 0 Z " fill="#95B266" transform="translate(102,62)"/>
<path d="M0 0 C1.32 0 2.64 0 4 0 C4 6.27 4 12.54 4 19 C2.35 19 0.7 19 -1 19 C-1.99 16.03 -2.98 13.06 -4 10 C-4.33 12.97 -4.66 15.94 -5 19 C-5.99 19 -6.98 19 -8 19 C-8 13.06 -8 7.12 -8 1 C-6.68 1 -5.36 1 -4 1 C-3.01 3.31 -2.02 5.62 -1 8 C-0.67 5.36 -0.34 2.72 0 0 Z " fill="#383727" transform="translate(207,192)"/>
<path d="M0 0 C1.32 0 2.64 0 4 0 C4 6.27 4 12.54 4 19 C2.68 19 1.36 19 0 19 C0 16.69 0 14.38 0 12 C-1.32 12 -2.64 12 -4 12 C-4 14.64 -4 17.28 -4 20 C-5.32 20 -6.64 20 -8 20 C-8 13.73 -8 7.46 -8 1 C-6.68 1 -5.36 1 -4 1 C-4 3.31 -4 5.62 -4 8 C-2.68 8 -1.36 8 0 8 C0 5.36 0 2.72 0 0 Z " fill="#3F3D28" transform="translate(178,194)"/>
<path d="M0 0 C1.32 0 2.64 0 4 0 C4.67286212 2.41509441 5.33846012 4.83180356 6 7.25 C6.19078125 7.93191406 6.3815625 8.61382812 6.578125 9.31640625 C7.49957044 12.70600912 8 15.45778976 8 19 C6.68 19 5.36 19 4 19 C4 18.01 4 17.02 4 16 C2.35 16 0.7 16 -1 16 C-1 17.32 -1 18.64 -1 20 C-2.32 20 -3.64 20 -5 20 C-3.07692308 3.07692308 -3.07692308 3.07692308 0 0 Z " fill="#4E4D3B" transform="translate(54,204)"/>
<path d="M0 0 C1.65 0 3.3 0 5 0 C5.67099984 2.60311992 6.33695338 5.20735398 7 7.8125 C7.19078125 8.55048828 7.3815625 9.28847656 7.578125 10.04882812 C8.35262914 13.10535341 9 15.83373478 9 19 C7.68 19 6.36 19 5 19 C5 18.01 5 17.02 5 16 C3.35 16 1.7 16 0 16 C0 16.99 0 17.98 0 19 C-0.99 19 -1.98 19 -3 19 C-3.45510807 12.32508169 -1.7672426 6.40625443 0 0 Z " fill="#33301C" transform="translate(95,201)"/>
<path d="M0 0 C1.32 0 2.64 0 4 0 C4.67812114 1.8708878 5.3419946 3.74694293 6 5.625 C6.37125 6.66914063 6.7425 7.71328125 7.125 8.7890625 C8.00483564 12.01774506 8.15988262 14.67244294 8 18 C5.33333333 17.33333333 2.66666667 16.66666667 0 16 C0 16.99 0 17.98 0 19 C-1.32 19 -2.64 19 -4 19 C-3.37968409 12.42465139 -1.85102717 6.33307408 0 0 Z " fill="#302F1C" transform="translate(188,194)"/>
<path d="M0 0 C1.65 0.33 3.3 0.66 5 1 C5.67126129 3.4363189 6.33716354 5.87388883 7 8.3125 C7.19078125 9.00279297 7.3815625 9.69308594 7.578125 10.40429688 C8.37716184 13.35787949 9 15.92559219 9 19 C7.68 19 6.36 19 5 19 C5 18.01 5 17.02 5 16 C3.35 16 1.7 16 0 16 C0 16.99 0 17.98 0 19 C-1.32 19 -2.64 19 -4 19 C-3.71512349 16.95737483 -3.42177949 14.91592973 -3.125 12.875 C-2.96257812 11.73804688 -2.80015625 10.60109375 -2.6328125 9.4296875 C-2.02568583 6.13921085 -1.13654367 3.14220897 0 0 Z " fill="#2D2A1A" transform="translate(231,190)"/>
<path d="M0 0 C0.66 0 1.32 0 2 0 C2 3.63 2 7.26 2 11 C2.66 11 3.32 11 4 11 C4.33 9.35 4.66 7.7 5 6 C6.44093965 8.8818793 5.44952403 10.44075266 4.5625 13.5 C3.05165136 19.22604737 1.20918238 26.41836475 4 32 C5.89533342 32.46523063 5.89533342 32.46523063 8.0625 32.625 C10.0115625 32.810625 10.0115625 32.810625 12 33 C12 33.33 12 33.66 12 34 C8.04 34 4.08 34 0 34 C-2 29 -4 24 -6 19 C-5.566875 18.63390625 -5.13375 18.2678125 -4.6875 17.890625 C-1.7145316 15.00023905 -0.13573231 13.0685593 0.3984375 8.86328125 C0.37731586 5.88865076 0.26269149 2.96257626 0 0 Z " fill="#8BB053" transform="translate(178,132)"/>
<path d="M0 0 C2.64 0 5.28 0 8 0 C10 2 10 2 10.25 5.5 C10 9 10 9 8 11 C6.68 11 5.36 11 4 11 C4 13.97 4 16.94 4 20 C2.68 20 1.36 20 0 20 C0 13.4 0 6.8 0 0 Z " fill="#666451" transform="translate(64,203)"/>
<path d="M0 0 C0 5.94 0 11.88 0 18 C1.98 18 3.96 18 6 18 C6 18.33 6 18.66 6 19 C3.69 19 1.38 19 -1 19 C-2.53266582 15.93466836 -2.10276471 12.73245728 -2.0625 9.375 C-2.05798828 8.66859375 -2.05347656 7.9621875 -2.04882812 7.234375 C-2.03703875 5.48954725 -2.01910324 3.744763 -2 2 C-5.63 2 -9.26 2 -13 2 C-12.98839844 3.24007812 -12.97679688 4.48015625 -12.96484375 5.7578125 C-12.86598148 21.85691507 -13.38601831 37.91563912 -14 54 C-12.68 54.33 -11.36 54.66 -10 55 C-11.65 55 -13.3 55 -15 55 C-15 37.18 -15 19.36 -15 1 C-8 0 -8 0 0 0 Z " fill="#DEECC7" transform="translate(118,61)"/>
<path d="M0 0 C0.66 0.33 1.32 0.66 2 1 C2.11598804 8.73648105 2.20476267 16.47287165 2.25906086 24.21002483 C2.28512544 27.8030086 2.32046329 31.39539636 2.37719727 34.98803711 C2.43163335 38.45698186 2.46144416 41.92535439 2.47438622 45.39469337 C2.48808449 47.35851051 2.52710018 49.32209825 2.56648254 51.28556824 C2.56960611 61.21789723 2.56960611 61.21789723 -0.53051758 64.35083008 C-1.34544678 64.89505615 -2.16037598 65.43928223 -3 66 C-2.67657623 65.1376474 -2.35315247 64.2752948 -2.01992798 63.3868103 C-1.00157439 60.00522797 -0.72567087 57.32799845 -0.68115234 53.81103516 C-0.66128265 52.61024323 -0.64141296 51.40945129 -0.62094116 50.17227173 C-0.60938995 48.89081268 -0.59783875 47.60935364 -0.5859375 46.2890625 C-0.56720789 44.95241118 -0.54763316 43.61577145 -0.5272522 42.27914429 C-0.47611399 38.7775967 -0.43639099 35.27601086 -0.39910889 31.77429199 C-0.35895373 28.19448526 -0.30791417 24.61483515 -0.2578125 21.03515625 C-0.16127046 14.02355219 -0.07679683 7.01184738 0 0 Z " fill="#A9C167" transform="translate(252,45)"/>
<path d="M0 0 C0.33 1.32 0.66 2.64 1 4 C-0.65 4 -2.3 4 -4 4 C-4 5.32 -4 6.64 -4 8 C-3.360625 8.309375 -2.72125 8.61875 -2.0625 8.9375 C0 10 0 10 1 11 C0.4 17.6 0.4 17.6 -2 20 C-4.625 20.125 -4.625 20.125 -7 20 C-7 18.68 -7 17.36 -7 16 C-5.35 16 -3.7 16 -2 16 C-2.73513624 12.80807544 -2.73513624 12.80807544 -5.5625 11.1875 C-8 9 -8 9 -8.5 5.9375 C-8 3 -8 3 -6.8125 1.125 C-4.43963721 -0.34781139 -2.74086056 -0.22223194 0 0 Z " fill="#24200D" transform="translate(144,197)"/>
<path d="M0 0 C0 1.32 0 2.64 0 4 C-1.32 4 -2.64 4 -4 4 C-4 5.32 -4 6.64 -4 8 C-2.68 8 -1.36 8 0 8 C0 8.99 0 9.98 0 11 C-0.99 11.33 -1.98 11.66 -3 12 C-3.73323796 14.01508358 -3.73323796 14.01508358 -4 16 C-2.68 16 -1.36 16 0 16 C0 16.99 0 17.98 0 19 C-2.31 19 -4.62 19 -7 19 C-7 13.06 -7 7.12 -7 1 C-3 0 -3 0 0 0 Z " fill="#1D1A05" transform="translate(133,198)"/>
<path d="M0 0 C2.97 0 5.94 0 9 0 C9 0.33 9 0.66 9 1 C6.36 1 3.72 1 1 1 C1 2.98 1 4.96 1 7 C4.63 7 8.26 7 12 7 C12.33 6.34 12.66 5.68 13 5 C13 10.28 13 15.56 13 21 C19.6 21 26.2 21 33 21 C33 21.33 33 21.66 33 22 C24.98340366 23.12513633 17.07861415 23.09579384 9 23 C9.16371094 22.45859375 9.32742187 21.9171875 9.49609375 21.359375 C10.08590587 18.59777407 10.09609308 16.07181861 10.0625 13.25 C10.04896484 11.77273437 10.04896484 11.77273437 10.03515625 10.265625 C10.02355469 9.51796875 10.01195313 8.7703125 10 8 C6.7 8 3.4 8 0 8 C0 5.36 0 2.72 0 0 Z " fill="#A8C17E" transform="translate(115,156)"/>
<path d="M0 0 C2.57966596 2.57966596 3.33609844 5.09307892 4.625 8.5 C5.29402344 10.24796875 5.29402344 10.24796875 5.9765625 12.03125 C7 15 7 15 7 17 C8.2375 16.7525 8.2375 16.7525 9.5 16.5 C13.41272317 15.94103955 17.05183173 15.93192813 21 16 C21 16.66 21 17.32 21 18 C18.56242587 18.02698422 16.12515085 18.04683099 13.6875 18.0625 C12.99720703 18.07087891 12.30691406 18.07925781 11.59570312 18.08789062 C8.4516975 18.10307906 6.00579981 18.00193327 3 17 C2.01 17.33 1.02 17.66 0 18 C0 12.06 0 6.12 0 0 Z " fill="#97B666" transform="translate(160,154)"/>
<path d="M0 0 C0.66 0 1.32 0 2 0 C2 5.28 2 10.56 2 16 C10.415 15.505 10.415 15.505 19 15 C19 12.36 19 9.72 19 7 C16.03 7 13.06 7 10 7 C10 6.67 10 6.34 10 6 C13.3 6 16.6 6 20 6 C20 9.63 20 13.26 20 17 C12.31068715 18.06059488 4.75493514 18.09928082 -3 18 C-2.01 17.67 -1.02 17.34 0 17 C0 11.39 0 5.78 0 0 Z " fill="#ECF6D8" transform="translate(105,158)"/>
<path d="M0 0 C2.97 0 5.94 0 9 0 C9 0.99 9 1.98 9 3 C8.34 3 7.68 3 7 3 C7 8.28 7 13.56 7 19 C5.68 19 4.36 19 3 19 C3 13.72 3 8.44 3 3 C2.01 3 1.02 3 0 3 C0 2.01 0 1.02 0 0 Z " fill="#363523" transform="translate(159,196)"/>
<path d="M0 0 C1.2375 0.1546875 1.2375 0.1546875 2.5 0.3125 C4.5 3.3125 4.5 3.3125 4.25 6.875 C3.5 10.3125 3.5 10.3125 1.5 12.3125 C-3.05555556 11.75694444 -3.05555556 11.75694444 -4.5 10.3125 C-4.77314815 4.57638889 -4.77314815 4.57638889 -4.5 2.3125 C-2.5 0.3125 -2.5 0.3125 0 0 Z " fill="#4B4831" transform="translate(119.5,26.6875)"/>
<path d="M0 0 C0.33 0.66 0.66 1.32 1 2 C7.93 2 14.86 2 22 2 C22 2.33 22 2.66 22 3 C12.1 3.495 12.1 3.495 2 4 C2 7.3 2 10.6 2 14 C-1.96 13.67 -5.92 13.34 -10 13 C-10 14.65 -10 16.3 -10 18 C-7.03 18 -4.06 18 -1 18 C-1 21.63 -1 25.26 -1 29 C-1.33 29 -1.66 29 -2 29 C-2 25.7 -2 22.4 -2 19 C-4.97 19 -7.94 19 -11 19 C-11 16.69 -11 14.38 -11 12 C-7.7 11.67 -4.4 11.34 -1 11 C-0.67 7.37 -0.34 3.74 0 0 Z " fill="#9BB86E" transform="translate(126,127)"/>
<path d="M0 0 C4.66600443 5.27461371 4.11486662 11.33773626 4 18 C2.02 18 0.04 18 -2 18 C-2.3690205 5.33029613 -2.3690205 5.33029613 0 0 Z " fill="#DDE5C8" transform="translate(196,131)"/>
<path d="M0 0 C0.66 0 1.32 0 2 0 C2 3.96 2 7.92 2 12 C3.32 11.34 4.64 10.68 6 10 C6.6993514 7.81458448 6.6993514 7.81458448 6.75 5.375 C6.80671875 4.55773437 6.8634375 3.74046875 6.921875 2.8984375 C6.94765625 2.27195313 6.9734375 1.64546875 7 1 C7.99 1 8.98 1 10 1 C10.10815225 2.76949095 10.18566083 4.54087487 10.25 6.3125 C10.29640625 7.29863281 10.3428125 8.28476563 10.390625 9.30078125 C10 12 10 12 8.359375 13.85546875 C6 15 6 15 0 15 C0 10.05 0 5.1 0 0 Z " fill="#25230D" transform="translate(215,195)"/>
<path d="M0 0 C1.32 0 2.64 0 4 0 C4 6.27 4 12.54 4 19 C2.68 19 1.36 19 0 19 C0 12.73 0 6.46 0 0 Z " fill="#3F3D2C" transform="translate(148,197)"/>
<path d="M0 0 C1.65 0 3.3 0 5 0 C7 2 7 2 7.3125 5.4375 C7 9 7 9 5.75 10.9375 C4 12 4 12 0 12 C0 8.04 0 4.08 0 0 Z " fill="#93B361" transform="translate(203,66)"/>
<path d="M0 0 C0.33 0 0.66 0 1 0 C1.66 6.6 2.32 13.2 3 20 C1.02 20 -0.96 20 -3 20 C-2.22095672 6.3667426 -2.22095672 6.3667426 0 0 Z " fill="#A1BD79" transform="translate(80,80)"/>
<path d="M0 0 C1.32 0 2.64 0 4 0 C4 6.27 4 12.54 4 19 C3.01 19 2.02 19 1 19 C1 16.36 1 13.72 1 11 C-0.32 10.67 -1.64 10.34 -3 10 C-2.01 9.67 -1.02 9.34 0 9 C0 6.03 0 3.06 0 0 Z " fill="#323220" transform="translate(178,194)"/>
<path d="M0 0 C1.98 0 3.96 0 6 0 C6.87867729 3.73437848 7.08912219 7.16774573 7 11 C6.01 10.67 5.02 10.34 4 10 C3.67 10.66 3.34 11.32 3 12 C2.01 12 1.02 12 0 12 C0 8.04 0 4.08 0 0 Z " fill="#41402C" transform="translate(129,26)"/>
<path d="M0 0 C0.66 0 1.32 0 2 0 C2 3.63 2 7.26 2 11 C2.66 11 3.32 11 4 11 C4.33 9.35 4.66 7.7 5 6 C6.44093965 8.8818793 5.44952403 10.44075266 4.5625 13.5 C3.05165136 19.22604737 1.20918238 26.41836475 4 32 C5.89533342 32.46523063 5.89533342 32.46523063 8.0625 32.625 C10.0115625 32.810625 10.0115625 32.810625 12 33 C12 33.33 12 33.66 12 34 C8.04 34 4.08 34 0 34 C0.0721875 32.89140625 0.144375 31.7828125 0.21875 30.640625 C0.3125665 29.17708759 0.40631282 27.71354569 0.5 26.25 C0.54769531 25.52039063 0.59539062 24.79078125 0.64453125 24.0390625 C0.85816897 20.68189836 1 17.36563724 1 14 C0.01 14.495 0.01 14.495 -1 15 C-0.67 14.01 -0.34 13.02 0 12 C0.068991 9.93854893 0.08467727 7.87498599 0.0625 5.8125 C0.05347656 4.72582031 0.04445312 3.63914063 0.03515625 2.51953125 C0.02355469 1.68808594 0.01195312 0.85664063 0 0 Z " fill="#98B86A" transform="translate(178,132)"/>
<path d="M0 0 C0.66 0 1.32 0 2 0 C2 1.65 2 3.3 2 5 C2.99 5 3.98 5 5 5 C5 3.35 5 1.7 5 0 C5.99 0 6.98 0 8 0 C8 3.96 8 7.92 8 12 C7.01 12 6.02 12 5 12 C5 10.35 5 8.7 5 7 C4.01 7 3.02 7 2 7 C2 8.98 2 10.96 2 13 C1.34 13 0.68 13 0 13 C0 8.71 0 4.42 0 0 Z " fill="#57533A" transform="translate(84,29)"/>
<path d="M0 0 C1.32 0 2.64 0 4 0 C4.33 2.64 4.66 5.28 5 8 C4.34 8 3.68 8 3 8 C3 11.3 3 14.6 3 18 C2.01 18 1.02 18 0 18 C0 12.06 0 6.12 0 0 Z " fill="#1C1B0C" transform="translate(77,203)"/>
<path d="M0 0 C0.99 0 1.98 0 3 0 C6.42857143 7.28571429 6.42857143 7.28571429 6 12 C5.01 12 4.02 12 3 12 C3 11.34 3 10.68 3 10 C2.01 10 1.02 10 0 10 C0 10.66 0 11.32 0 12 C-0.66 12 -1.32 12 -2 12 C-1.85904936 10.3745692 -1.71207913 8.74965949 -1.5625 7.125 C-1.48128906 6.22007813 -1.40007812 5.31515625 -1.31640625 4.3828125 C-1 2 -1 2 0 0 Z " fill="#5A5741" transform="translate(188,21)"/>
<path d="M0 0 C2.625 -0.1875 2.625 -0.1875 5 0 C5.33 0.99 5.66 1.98 6 3 C4.35 2.67 2.7 2.34 1 2 C1 4.64 1 7.28 1 10 C1.99 10 2.98 10 4 10 C3.67 8.35 3.34 6.7 3 5 C4.32 5 5.64 5 7 5 C7.125 7.375 7.125 7.375 7 10 C5 12 5 12 2.5 12.25 C0 12 0 12 -2 10 C-2.31537716 5.66356399 -2.44897847 3.67346771 0 0 Z " fill="#55533B" transform="translate(152,24)"/>
<path d="M0 0 C3 1 3 1 4 3 C4.33 2.01 4.66 1.02 5 0 C5.66 0 6.32 0 7 0 C7 3.96 7 7.92 7 12 C6.01 11.67 5.02 11.34 4 11 C3.67 10.01 3.34 9.02 3 8 C2.67 9.32 2.34 10.64 2 12 C1.34 12 0.68 12 0 12 C0 8.04 0 4.08 0 0 Z " fill="#35311D" transform="translate(173,22)"/>
<path d="M0 0 C1.65 0 3.3 0 5 0 C5.36463732 1.74784829 5.7163078 3.49840502 6.0625 5.25 C6.25972656 6.22453125 6.45695312 7.1990625 6.66015625 8.203125 C6.98397535 10.868119 6.85503199 12.48871723 6 15 C4.35 15 2.7 15 1 15 C1.66 14.34 2.32 13.68 3 13 C3.16677282 9.41656024 3.16677282 9.41656024 3 6 C2.34 5.67 1.68 5.34 1 5 C1.04125 5.94875 1.0825 6.8975 1.125 7.875 C1 11 1 11 -1 13 C-0.67 8.71 -0.34 4.42 0 0 Z " fill="#31311D" transform="translate(95,201)"/>
<path d="M0 0 C2.64 0 5.28 0 8 0 C9 1 9 1 9.0625 4.5625 C9.041875 5.696875 9.02125 6.83125 9 8 C8.67 7.34 8.34 6.68 8 6 C7.34 6 6.68 6 6 6 C5.67 5.01 5.34 4.02 5 3 C4.01 2.67 3.02 2.34 2 2 C2 7.28 2 12.56 2 18 C1.34 18 0.68 18 0 18 C0 12.06 0 6.12 0 0 Z " fill="#171504" transform="translate(65,204)"/>
<path d="M0 0 C0.66 0 1.32 0 2 0 C2.50757862 1.41396902 3.00574925 2.83131729 3.5 4.25 C3.7784375 5.03890625 4.056875 5.8278125 4.34375 6.640625 C5 9 5 9 5 13 C3.68 13 2.36 13 1 13 C1 12.01 1 11.02 1 10 C-0.98 10 -2.96 10 -5 10 C-5 8.35 -5 6.7 -5 5 C-4.34 4.67 -3.68 4.34 -3 4 C-3 5.32 -3 6.64 -3 8 C-2.01 8 -1.02 8 0 8 C0 5.36 0 2.72 0 0 Z " fill="#272613" transform="translate(57,210)"/>
<path d="M0 0 C0.99 0 1.98 0 3 0 C3 5.61 3 11.22 3 17 C4.32 17.66 5.64 18.32 7 19 C4.36 19 1.72 19 -1 19 C-1.33 18.34 -1.66 17.68 -2 17 C-5.04581269 16.53045739 -5.04581269 16.53045739 -8.5625 16.375 C-10.35880859 16.26285156 -10.35880859 16.26285156 -12.19140625 16.1484375 C-13.11824219 16.09945312 -14.04507813 16.05046875 -15 16 C-15 15.67 -15 15.34 -15 15 C-10.05 14.67 -5.1 14.34 0 14 C0.2165625 11.339375 0.2165625 11.339375 0.4375 8.625 C0.875 3.25 0.875 3.25 2 1 C1.34 0.67 0.68 0.34 0 0 Z " fill="#9AB56D" transform="translate(102,158)"/>
<path d="M0 0 C1.65 1.32 3.3 2.64 5 4 C3.68 4 2.36 4 1 4 C-1.11894305 10.14148941 -1.42311768 15.97305973 -1.625 22.4375 C-1.66367188 23.45521484 -1.70234375 24.47292969 -1.7421875 25.52148438 C-1.83580872 28.01414936 -1.92153993 30.5068195 -2 33 C-2.33 33 -2.66 33 -3 33 C-3.33 27.39 -3.66 21.78 -4 16 C-4.66 16 -5.32 16 -6 16 C-4.25192871 10.53262809 -2.34205919 5.24175152 0 0 Z " fill="#9DB772" transform="translate(104,125)"/>
<path d="M0 0 C0.66 0 1.32 0 2 0 C2.5345256 1.24420647 3.05208611 2.49570936 3.5625 3.75 C3.85253906 4.44609375 4.14257812 5.1421875 4.44140625 5.859375 C5.07831803 8.30012784 4.80248831 9.6403655 4 12 C3.34 11.67 2.68 11.34 2 11 C1.67 13.97 1.34 16.94 1 20 C-0.32 20 -1.64 20 -3 20 C-3 19.34 -3 18.68 -3 18 C-2.01 18 -1.02 18 0 18 C0 12.06 0 6.12 0 0 Z " fill="#93B262" transform="translate(203,89)"/>
<path d="M0 0 C2.97 0 5.94 0 9 0 C9 1.32 9 2.64 9 4 C9.66 4 10.32 4 11 4 C11 4.66 11 5.32 11 6 C7.37 6 3.74 6 0 6 C0 4.02 0 2.04 0 0 Z " fill="#87A950" transform="translate(138,159)"/>
<path d="M0 0 C5 1 5 1 6 2 C6.4640884 7.33701657 6.4640884 7.33701657 4.6875 9.875 C3 11 3 11 0 11 C0 7.37 0 3.74 0 0 Z " fill="#92B25F" transform="translate(160,135)"/>
<path d="M0 0 C0.33 0 0.66 0 1 0 C1.125 7.625 1.125 7.625 0 11 C-0.0806622 12.48123547 -0.10761193 13.96582204 -0.09765625 15.44921875 C-0.09443359 16.29677734 -0.09121094 17.14433594 -0.08789062 18.01757812 C-0.07951172 18.89865234 -0.07113281 19.77972656 -0.0625 20.6875 C-0.05798828 21.58017578 -0.05347656 22.47285156 -0.04882812 23.39257812 C-0.03704983 25.59511987 -0.02060164 27.79752599 0 30 C-3.95973819 26.04026181 -3.23413762 21.21189077 -3.25976562 15.92163086 C-3.18808985 10.21031177 -2.08943756 5.28577955 0 0 Z " fill="#D4E3B9" transform="translate(146,69)"/>
<path d="M0 0 C0.33 0.66 0.66 1.32 1 2 C1.70213623 1.83701416 2.40427246 1.67402832 3.12768555 1.50610352 C6.13731803 0.97580448 8.90268462 0.88668043 11.95703125 0.90234375 C13.06884766 0.90556641 14.18066406 0.90878906 15.32617188 0.91210938 C16.47666016 0.92048828 17.62714844 0.92886719 18.8125 0.9375 C19.98232422 0.94201172 21.15214844 0.94652344 22.35742188 0.95117188 C25.23833358 0.9629307 28.11914044 0.97936574 31 1 C31 1.33 31 1.66 31 2 C27.35475481 2.33997574 23.70872831 2.67074937 20.0625 3 C18.53012695 3.14308594 18.53012695 3.14308594 16.96679688 3.2890625 C10.94822031 3.82746552 5.04236648 4.10081112 -1 4 C-0.67 2.68 -0.34 1.36 0 0 Z " fill="#E1EEC9" transform="translate(71,171)"/>
<path d="M0 0 C1.93408178 3.86816357 -0.86563594 9.09778764 -2 13 C2.95 12.67 7.9 12.34 13 12 C13 12.66 13 13.32 13 14 C7.06 14 1.12 14 -5 14 C-3.25892857 2.61607143 -3.25892857 2.61607143 0 0 Z " fill="#97B368" transform="translate(61,106)"/>
<path d="M0 0 C1.65 0 3.3 0 5 0 C5 0.66 5 1.32 5 2 C4.34 2 3.68 2 3 2 C3 2.99 3 3.98 3 5 C3.66 5 4.32 5 5 5 C5 5.66 5 6.32 5 7 C4.34 7 3.68 7 3 7 C3 7.99 3 8.98 3 10 C3.66 10 4.32 10 5 10 C5 10.99 5 11.98 5 13 C3.35 13 1.7 13 0 13 C0 8.71 0 4.42 0 0 Z " fill="#4F4E39" transform="translate(97,28)"/>
<path d="M0 0 C2.31 0 4.62 0 7 0 C7.02687279 1.81242052 7.04633715 3.62495233 7.0625 5.4375 C7.07410156 6.44683594 7.08570312 7.45617187 7.09765625 8.49609375 C7 11 7 11 6 12 C4.31391034 12.07205511 2.62499341 12.08386068 0.9375 12.0625 C0.01839844 12.05347656 -0.90070313 12.04445312 -1.84765625 12.03515625 C-2.55792969 12.02355469 -3.26820312 12.01195312 -4 12 C-4 14.31 -4 16.62 -4 19 C-4.33 19 -4.66 19 -5 19 C-5 16.36 -5 13.72 -5 11 C-1.7 10.34 1.6 9.68 5 9 C5.33 6.36 5.66 3.72 6 1 C4.02 1 2.04 1 0 1 C0 0.67 0 0.34 0 0 Z " fill="#DCE9C2" transform="translate(119,127)"/>
<path d="M0 0 C3.84565966 4.37006779 4.6197805 9.47912199 6 15 C10.29 15 14.58 15 19 15 C17 17 17 17 13.7421875 17.1953125 C12.46601562 17.17210938 11.18984375 17.14890625 9.875 17.125 C7.95300781 17.09792969 7.95300781 17.09792969 5.9921875 17.0703125 C4.51105469 17.03550781 4.51105469 17.03550781 3 17 C2.49453964 14.91798472 1.99583165 12.83432933 1.5 10.75 C1.2215625 9.58984375 0.943125 8.4296875 0.65625 7.234375 C0 4 0 4 0 0 Z " fill="#93B460" transform="translate(97,100)"/>
<path d="M0 0 C2.97 0 5.94 0 9 0 C9 1.65 9 3.3 9 5 C4.545 5.495 4.545 5.495 0 6 C0 4.02 0 2.04 0 0 Z " fill="#85AB4D" transform="translate(138,142)"/>
<path d="M0 0 C1.23556641 0.01740234 1.23556641 0.01740234 2.49609375 0.03515625 C3.32238281 0.04417969 4.14867187 0.05320313 5 0.0625 C5.63808594 0.07410156 6.27617187 0.08570313 6.93359375 0.09765625 C6.93359375 2.07765625 6.93359375 4.05765625 6.93359375 6.09765625 C2.47859375 5.10765625 2.47859375 5.10765625 -2.06640625 4.09765625 C-2.06640625 4.75765625 -2.06640625 5.41765625 -2.06640625 6.09765625 C-2.72640625 6.09765625 -3.38640625 6.09765625 -4.06640625 6.09765625 C-2.99738005 0.14165312 -2.99738005 0.14165312 0 0 Z " fill="#171603" transform="translate(189.06640625,205.90234375)"/>
<path d="M0 0 C1.98 0.495 1.98 0.495 4 1 C3.34 12.55 2.68 24.1 2 36 C1.67 36 1.34 36 1 36 C1 30.72 1 25.44 1 20 C0.34 20 -0.32 20 -1 20 C-1 19.34 -1 18.68 -1 18 C-0.01 18 0.98 18 2 18 C2 12.72 2 7.44 2 2 C1.34 2 0.68 2 0 2 C0 1.34 0 0.68 0 0 Z " fill="#CCDFAC" transform="translate(148,125)"/>
<path d="M0 0 C2 2 2 2 2.265625 3.98828125 C2.22367089 10.22895529 1.77965559 13.99788746 -2.5 18.8125 C-5 21 -5 21 -7 21 C-7.33 21.66 -7.66 22.32 -8 23 C-8 20 -8 20 -5.625 17.5 C-4.75875 16.675 -3.8925 15.85 -3 15 C-0.73045369 11.59568053 -0.63450051 9.83475798 -0.375 5.8125 C-0.26285156 4.18248047 -0.26285156 4.18248047 -0.1484375 2.51953125 C-0.09945312 1.68808594 -0.05046875 0.85664062 0 0 Z " fill="#8EAF57" transform="translate(224,63)"/>
<path d="M0 0 C0.84755859 0.00322266 1.69511719 0.00644531 2.56835938 0.00976562 C3.8899707 0.02233398 3.8899707 0.02233398 5.23828125 0.03515625 C6.57729492 0.04192383 6.57729492 0.04192383 7.94335938 0.04882812 C10.14590112 0.06060642 12.34830724 0.07705461 14.55078125 0.09765625 C14.55078125 0.75765625 14.55078125 1.41765625 14.55078125 2.09765625 C15.54078125 2.09765625 16.53078125 2.09765625 17.55078125 2.09765625 C17.22078125 2.75765625 16.89078125 3.41765625 16.55078125 4.09765625 C15.74640625 3.76765625 14.94203125 3.43765625 14.11328125 3.09765625 C8.08861148 1.40652088 2.619861 1.85271681 -3.44921875 3.09765625 C-6.12234165 3.18307559 -8.77361256 3.14300551 -11.44921875 3.09765625 C-7.54180255 1.0765789 -4.41795936 -0.02965073 0 0 Z " fill="#95B466" transform="translate(200.44921875,51.90234375)"/>
<path d="M0 0 C0.66 0 1.32 0 2 0 C2.02709444 2.08326131 2.04643873 4.16662441 2.0625 6.25 C2.07410156 7.41015625 2.08570313 8.5703125 2.09765625 9.765625 C2.01782092 12.40977128 1.78643778 14.49826091 1 17 C0.34 17 -0.32 17 -1 17 C-2.4606285 14.35261084 -3 13.10551666 -3 10 C-2.01 10 -1.02 10 0 10 C0 6.7 0 3.4 0 0 Z " fill="#17170A" transform="translate(208,193)"/>
<path d="M0 0 C0.66 0 1.32 0 2 0 C2.05382106 2.62527189 2.09358313 5.24944713 2.125 7.875 C2.14175781 8.62136719 2.15851563 9.36773437 2.17578125 10.13671875 C2.1933959 12.09194461 2.10320189 14.04742021 2 16 C1.34 16.66 0.68 17.32 0 18 C0 16.68 0 15.36 0 14 C-1.65 14 -3.3 14 -5 14 C-5 13.67 -5 13.34 -5 13 C-3.35 13 -1.7 13 0 13 C0 9.7 0 6.4 0 3 C-1.65 3 -3.3 3 -5 3 C-5 2.67 -5 2.34 -5 2 C-3.35 2 -1.7 2 0 2 C0 1.34 0 0.68 0 0 Z " fill="#97B26A" transform="translate(147,145)"/>
<path d="M0 0 C1.98 0.99 1.98 0.99 4 2 C4 4.64 4 7.28 4 10 C2.02 10.99 2.02 10.99 0 12 C0 8.04 0 4.08 0 0 Z " fill="#E7E6E0" transform="translate(115,203)"/>
<path d="M0 0 C0.33 1.32 0.66 2.64 1 4 C2.98 4 4.96 4 7 4 C7.33 5.32 7.66 6.64 8 8 C7.01 8 6.02 8 5 8 C5 7.34 5 6.68 5 6 C3.35 6 1.7 6 0 6 C0 6.99 0 7.98 0 9 C-1.32 9 -2.64 9 -4 9 C-3.625 6.5625 -3.625 6.5625 -3 4 C-2.34 3.67 -1.68 3.34 -1 3 C-0.67 2.01 -0.34 1.02 0 0 Z " fill="#2B2814" transform="translate(231,200)"/>
<path d="M0 0 C1.98 0.99 1.98 0.99 4 2 C4 4.64 4 7.28 4 10 C2.02 10.99 2.02 10.99 0 12 C0 8.04 0 4.08 0 0 Z " fill="#DDDDD6" transform="translate(218,195)"/>
<path d="M0 0 C0.33 0 0.66 0 1 0 C1.50435694 1.9363704 2.00333874 3.87414146 2.5 5.8125 C2.7784375 6.89144531 3.056875 7.97039062 3.34375 9.08203125 C4 12 4 12 4 15 C2.68 14.67 1.36 14.34 0 14 C0.66 13.67 1.32 13.34 2 13 C2 12.01 2 11.02 2 10 C0.02 10 -1.96 10 -4 10 C-4 8.35 -4 6.7 -4 5 C-3.34 4.67 -2.68 4.34 -2 4 C-1.67 4.66 -1.34 5.32 -1 6 C-0.67 4.02 -0.34 2.04 0 0 Z " fill="#6F6B5A" transform="translate(236,194)"/>
<path d="M0 0 C0 1.32 0 2.64 0 4 C-1.65 4.33 -3.3 4.66 -5 5 C-5.33 9.62 -5.66 14.24 -6 19 C-6.33 19 -6.66 19 -7 19 C-7 13.06 -7 7.12 -7 1 C-3 0 -3 0 0 0 Z " fill="#35311A" transform="translate(133,198)"/>
<path d="M0 0 C0.66 0.33 1.32 0.66 2 1 C2 4.63 2 8.26 2 12 C0.68 12 -0.64 12 -2 12 C-2.17835515 7.45194365 -1.99785435 4.1205746 0 0 Z " fill="#98B469" transform="translate(196,137)"/>
<path d="M0 0 C0.66 1.32 1.32 2.64 2 4 C2.66 2.68 3.32 1.36 4 0 C4.29363808 4.99184736 4.07836372 7.97444744 1 12 C0.01 12.495 0.01 12.495 -1 13 C-1 12.34 -1 11.68 -1 11 C-1.99 10.67 -2.98 10.34 -4 10 C-3.01 9.34 -2.02 8.68 -1 8 C-0.42251197 6.03638136 -0.42251197 6.03638136 -0.3125 3.875 C-0.209375 2.59625 -0.10625 1.3175 0 0 Z " fill="#34311D" transform="translate(119,205)"/>
<path d="M0 0 C4.75 0.75 4.75 0.75 7 3 C7.22705078 4.97119141 7.22705078 4.97119141 7.1953125 7.3515625 C7.18564453 8.62773438 7.18564453 8.62773438 7.17578125 9.9296875 C7.15902344 10.81914063 7.14226562 11.70859375 7.125 12.625 C7.11597656 13.5221875 7.10695312 14.419375 7.09765625 15.34375 C7.0740497 17.56276586 7.0411231 19.78125077 7 22 C6.67 22 6.34 22 6 22 C5.67 15.73 5.34 9.46 5 3 C2.69 3.33 0.38 3.66 -2 4 C-1.34 2.68 -0.68 1.36 0 0 Z " fill="#A3BE78" transform="translate(162,70)"/>
<path d="M0 0 C2 3 2 3 2 9 C-2.95 9 -7.9 9 -13 9 C-12.67 7.68 -12.34 6.36 -12 5 C-12 5.99 -12 6.98 -12 8 C-11.319375 7.835 -10.63875 7.67 -9.9375 7.5 C-6.5835178 6.92910941 -3.39610195 6.93340977 0 7 C0 4.69 0 2.38 0 0 Z " fill="#E1EFC9" transform="translate(98,108)"/>
<path d="M0 0 C0.66 0 1.32 0 2 0 C2 4.29 2 8.58 2 13 C1.01 13 0.02 13 -1 13 C-1.02686553 11.02090602 -1.04633375 9.04171029 -1.0625 7.0625 C-1.07410156 5.96035156 -1.08570313 4.85820312 -1.09765625 3.72265625 C-1 1 -1 1 0 0 Z " fill="#65624D" transform="translate(143,24)"/>
<path d="M0 0 C0.33 0.99 0.66 1.98 1 3 C1.66 3 2.32 3 3 3 C3 4.65 3 6.3 3 8 C2.34 8 1.68 8 1 8 C0.67 8.99 0.34 9.98 0 11 C0 10.01 0 9.02 0 8 C-1.32 8 -2.64 8 -4 8 C-4 6.68 -4 5.36 -4 4 C-2.68 4 -1.36 4 0 4 C0 2.68 0 1.36 0 0 Z " fill="#DFDED7" transform="translate(133,198)"/>
<path d="M0 0 C0.66 0 1.32 0 2 0 C2 3.96 2 7.92 2 12 C2.99 12.33 3.98 12.66 5 13 C4.67 13.66 4.34 14.32 4 15 C2.68 15 1.36 15 0 15 C0 10.05 0 5.1 0 0 Z " fill="#191702" transform="translate(215,195)"/>
<path d="M0 0 C5.61 0 11.22 0 17 0 C17 0.33 17 0.66 17 1 C16.26394531 1.03738281 15.52789062 1.07476562 14.76953125 1.11328125 C7.35165385 1.47977982 7.35165385 1.47977982 1 5 C-0.78344178 7.06954847 -0.78344178 7.06954847 -2 9 C-1.51421457 5.87709365 -1.0013988 3.00419641 0 0 Z " fill="#E1EFCA" transform="translate(72,64)"/>
<path d="M0 0 C5.4 -0.36 5.4 -0.36 7.875 1.125 C9.50531294 3.84218824 9.33015665 5.89652746 9 9 C8.34 9.66 7.68 10.32 7 11 C7 9.02 7 7.04 7 5 C4.525 4.01 4.525 4.01 2 3 C2 2.34 2 1.68 2 1 C1.34 0.67 0.68 0.34 0 0 Z " fill="#211F0C" transform="translate(113,200)"/>
<path d="M0 0 C0.99 0 1.98 0 3 0 C3 3.96 3 7.92 3 12 C2.01 12 1.02 12 0 12 C0 8.04 0 4.08 0 0 Z " fill="#5E5942" transform="translate(164,23)"/>
<path d="M0 0 C0.33 1.32 0.66 2.64 1 4 C-0.11375 4.0825 -1.2275 4.165 -2.375 4.25 C-6.05753944 4.57873787 -6.05753944 4.57873787 -7.4375 7.0625 C-7.623125 7.701875 -7.80875 8.34125 -8 9 C-8.36190476 3.57142857 -8.36190476 3.57142857 -6.8125 1.125 C-4.43963721 -0.34781139 -2.74086056 -0.22223194 0 0 Z " fill="#4B4A36" transform="translate(144,197)"/>
<path d="M0 0 C0.33 1.32 0.66 2.64 1 4 C1.66 4 2.32 4 3 4 C3.33 2.68 3.66 1.36 4 0 C4.33 0 4.66 0 5 0 C5 1.98 5 3.96 5 6 C3.68 6 2.36 6 1 6 C0.34 7.65 -0.32 9.3 -1 11 C-0.34 11 0.32 11 1 11 C1.33 10.34 1.66 9.68 2 9 C2 9.99 2 10.98 2 12 C0.68 12 -0.64 12 -2 12 C-1 3.42857143 -1 3.42857143 0 0 Z " fill="#807F6C" transform="translate(186,201)"/>
<path d="M0 0 C1.1446875 0.495 1.1446875 0.495 2.3125 1 C7.25174651 2.33945668 11.91463109 2.16287658 17 2 C17 2.66 17 3.32 17 4 C7.05941391 5.44495384 7.05941391 5.44495384 2.875 3.6875 C1 2 1 2 0 0 Z " fill="#97B447" transform="translate(94,181)"/>
<path d="M0 0 C1.67542976 0.28604898 3.34385343 0.61781233 5 1 C5 1.66 5 2.32 5 3 C3.35 3 1.7 3 0 3 C0 6.96 0 10.92 0 15 C1.65 14.67 3.3 14.34 5 14 C5 14.66 5 15.32 5 16 C3.02 16 1.04 16 -1 16 C-1.02685095 13.52076199 -1.04676547 11.0418116 -1.0625 8.5625 C-1.07506836 7.50192383 -1.07506836 7.50192383 -1.08789062 6.41992188 C-1.09653588 4.61306441 -1.05220011 2.80612397 -1 1 C-0.67 0.67 -0.34 0.34 0 0 Z " fill="#E8F2D8" transform="translate(203,63)"/>
<path d="M0 0 C1.23593891 3.70781672 0.5678132 4.67510253 -0.9375 8.1875 C-1.31777344 9.08855469 -1.69804688 9.98960938 -2.08984375 10.91796875 C-2.54037109 11.94857422 -2.54037109 11.94857422 -3 13 C-3.66 13 -4.32 13 -5 13 C-5.33 13.66 -5.66 14.32 -6 15 C-4.44191344 4.44191344 -4.44191344 4.44191344 0 0 Z " fill="#A8BF5F" transform="translate(66,57)"/>
<path d="M0 0 C2.475 0.495 2.475 0.495 5 1 C5 4.63 5 8.26 5 12 C3.68 11.01 2.36 10.02 1 9 C1 8.01 1 7.02 1 6 C1.66 6 2.32 6 3 6 C3.33 4.68 3.66 3.36 4 2 C2.68 2.33 1.36 2.66 0 3 C0 2.01 0 1.02 0 0 Z " fill="#373320" transform="translate(231,190)"/>
<path d="M0 0 C2.64 0 5.28 0 8 0 C8 1.32 8 2.64 8 4 C5.36 4 2.72 4 0 4 C0 2.68 0 1.36 0 0 Z " fill="#84AE45" transform="translate(116,140)"/>
<path d="M0 0 C0.66 0 1.32 0 2 0 C2 1.65 2 3.3 2 5 C2.99 5 3.98 5 5 5 C5 5.66 5 6.32 5 7 C4.01 7 3.02 7 2 7 C2 8.98 2 10.96 2 13 C1.34 13 0.68 13 0 13 C0 8.71 0 4.42 0 0 Z " fill="#3F3A20" transform="translate(84,29)"/>
<path d="M0 0 C1.98 0 3.96 0 6 0 C6 0.66 6 1.32 6 2 C5.34 2 4.68 2 4 2 C4 5.3 4 8.6 4 12 C3.34 12 2.68 12 2 12 C2 8.7 2 5.4 2 2 C1.34 2 0.68 2 0 2 C0 1.34 0 0.68 0 0 Z " fill="#343117" transform="translate(73,30)"/>
<path d="M0 0 C1.125 3.75 1.125 3.75 0 6 C-0.22622081 7.70363822 -0.40888473 9.41328701 -0.5625 11.125 C-0.68818359 12.49011719 -0.68818359 12.49011719 -0.81640625 13.8828125 C-0.87699219 14.58148438 -0.93757813 15.28015625 -1 16 C-1.66 15.67 -2.32 15.34 -3 15 C-3.35050464 9.158256 -3.16727335 5.1468192 0 0 Z " fill="#9BB646" transform="translate(64,164)"/>
<path d="M0 0 C-5.94 3.465 -5.94 3.465 -12 7 C-12.99 6.34 -13.98 5.68 -15 5 C-13.25877451 3.96427104 -11.50663405 2.9468748 -9.75 1.9375 C-8.28820312 1.08478516 -8.28820312 1.08478516 -6.796875 0.21484375 C-4 -1 -4 -1 0 0 Z " fill="#9CB94C" transform="translate(161,48)"/>
<path d="M0 0 C0.66 0 1.32 0 2 0 C2 3.3 2 6.6 2 10 C2.99 10 3.98 10 5 10 C5 10.66 5 11.32 5 12 C3.35 12 1.7 12 0 12 C0 8.04 0 4.08 0 0 Z " fill="#35301A" transform="translate(199,20)"/>
<path d="M0 0 C2.31 0 4.62 0 7 0 C7.33 1.32 7.66 2.64 8 4 C5.36 4 2.72 4 0 4 C0 2.68 0 1.36 0 0 Z " fill="#82AF41" transform="translate(139,160)"/>
<path d="M0 0 C1.65 0 3.3 0 5 0 C5 3.3 5 6.6 5 10 C4.01 9.67 3.02 9.34 2 9 C2.33 7.35 2.66 5.7 3 4 C2.01 4 1.02 4 0 4 C0 2.68 0 1.36 0 0 Z " fill="#63604B" transform="translate(131,27)"/>
<path d="M0 0 C2.625 -0.1875 2.625 -0.1875 5 0 C5.33 0.99 5.66 1.98 6 3 C4.35 2.67 2.7 2.34 1 2 C1.061875 2.94875 1.12375 3.8975 1.1875 4.875 C1.125625 5.90625 1.06375 6.9375 1 8 C0.01 8.66 -0.98 9.32 -2 10 C-2.25 3.375 -2.25 3.375 0 0 Z " fill="#5E5A44" transform="translate(152,24)"/>
<path d="M0 0 C-0.66 0.66 -1.32 1.32 -2 2 C-2.99 2 -3.98 2 -5 2 C-5.433125 3.2065625 -5.433125 3.2065625 -5.875 4.4375 C-7 7 -7 7 -9 8 C-9.33 6.68 -9.66 5.36 -10 4 C-6.58908673 0.88145073 -4.68377325 -0.53528837 0 0 Z " fill="#98B549" transform="translate(34,59)"/>
<path d="M0 0 C0.99 0 1.98 0 3 0 C3 1.65 3 3.3 3 5 C2.01 4.67 1.02 4.34 0 4 C0.04125 4.94875 0.0825 5.8975 0.125 6.875 C0 10 0 10 -2 12 C-1.85962479 10.18706911 -1.71255111 8.3746557 -1.5625 6.5625 C-1.48128906 5.55316406 -1.40007812 4.54382813 -1.31640625 3.50390625 C-1 1 -1 1 0 0 Z " fill="#191709" transform="translate(96,202)"/>
<path d="M0 0 C0.66 0 1.32 0 2 0 C2 1.98 2 3.96 2 6 C0.02 6 -1.96 6 -4 6 C-4 4.35 -4 2.7 -4 1 C-3.34 1 -2.68 1 -2 1 C-2 1.66 -2 2.32 -2 3 C-1.34 3 -0.68 3 0 3 C0 2.01 0 1.02 0 0 Z " fill="#77704D" transform="translate(267,39)"/>
<path d="M0 0 C0.66 0.33 1.32 0.66 2 1 C1.07161713 2.31896465 0.13194268 3.62998689 -0.8125 4.9375 C-1.59560547 6.03384766 -1.59560547 6.03384766 -2.39453125 7.15234375 C-4 9 -4 9 -7 10 C-5.6062718 5.56541027 -3.39417765 3.12621626 0 0 Z " fill="#E7F1D3" transform="translate(154,59)"/>
<path d="M0 0 C0.33 0 0.66 0 1 0 C1.66 2.31 2.32 4.62 3 7 C5.64 7.33 8.28 7.66 11 8 C11 8.33 11 8.66 11 9 C7.04 9 3.08 9 -1 9 C-0.67 6.03 -0.34 3.06 0 0 Z " fill="#BAD096" transform="translate(179,157)"/>
<path d="M0 0 C0.99 0.33 1.98 0.66 3 1 C3 3.31 3 5.62 3 8 C2.01 8 1.02 8 0 8 C0 5.36 0 2.72 0 0 Z " fill="#7F7D6B" transform="translate(96,206)"/>
<path d="M0 0 C0.33 0 0.66 0 1 0 C1 3.3 1 6.6 1 10 C-0.32 10.33 -1.64 10.66 -3 11 C-3.625 9.1875 -3.625 9.1875 -4 7 C-3.34 6.01 -2.68 5.02 -2 4 C-1.67 4.99 -1.34 5.98 -1 7 C-0.67 4.69 -0.34 2.38 0 0 Z " fill="#3B3825" transform="translate(207,193)"/>
<path d="M0 0 C0.8125 1.6875 0.8125 1.6875 1 4 C-1.3125 6.75 -1.3125 6.75 -4 9 C-4.66 9 -5.32 9 -6 9 C-6.33 9.66 -6.66 10.32 -7 11 C-7 8 -7 8 -4.625 5.5 C-3.75875 4.675 -2.8925 3.85 -2 3 C-1.34 2.01 -0.68 1.02 0 0 Z " fill="#9FBB73" transform="translate(223,75)"/>
<path d="M0 0 C2.125 0.375 2.125 0.375 4 1 C1.12835434 3.70272533 -0.30991841 4.94791837 -4.3125 5.25 C-5.199375 5.1675 -6.08625 5.085 -7 5 C-6.67 4.34 -6.34 3.68 -6 3 C-4.66923011 2.65657551 -3.33568021 2.32380126 -2 2 C-1.34 1.34 -0.68 0.68 0 0 Z " fill="#9BB74B" transform="translate(184,46)"/>
<path d="M0 0 C-2.39763185 2.39763185 -3.33273498 2.34280586 -6.625 2.625 C-7.44226563 2.69976562 -8.25953125 2.77453125 -9.1015625 2.8515625 C-9.72804687 2.90054688 -10.35453125 2.94953125 -11 3 C-11.33 2.34 -11.66 1.68 -12 1 C-8.0186217 -0.3271261 -4.14954773 -0.06915913 0 0 Z " fill="#87A951" transform="translate(200,108)"/>
<path d="M0 0 C0.33 0 0.66 0 1 0 C1 3.96 1 7.92 1 12 C0.01 11.67 -0.98 11.34 -2 11 C-1.855625 10.29875 -1.71125 9.5975 -1.5625 8.875 C-0.98521625 5.92443859 -0.48304859 2.96729849 0 0 Z " fill="#31301A" transform="translate(179,22)"/>
<path d="M0 0 C0.66 0.99 1.32 1.98 2 3 C1.5359375 3.7734375 1.5359375 3.7734375 1.0625 4.5625 C-0.29059287 7.66665423 -0.61359424 10.65115007 -1 14 C-1.33 14 -1.66 14 -2 14 C-2 10.7 -2 7.4 -2 4 C-1.34 4 -0.68 4 0 4 C0 2.68 0 1.36 0 0 Z " fill="#504F3A" transform="translate(82,207)"/>
<path d="M0 0 C2.875 -0.125 2.875 -0.125 6 0 C8 2 8 2 8.1953125 3.9453125 C8.13020833 5.96354167 8.06510417 7.98177083 8 10 C6.35173889 7.03312999 5.55728913 4.34373475 5 1 C3.35 1 1.7 1 0 1 C0 0.67 0 0.34 0 0 Z " fill="#A0BF76" transform="translate(84,63)"/>
<path d="M0 0 C0.99 0 1.98 0 3 0 C3 2.31 3 4.62 3 7 C2.01 7 1.02 7 0 7 C0 4.69 0 2.38 0 0 Z " fill="#ECEBE6" transform="translate(118,29)"/>
<path d="M0 0 C0.33 0 0.66 0 1 0 C1.1875 2.875 1.1875 2.875 1 6 C0.01 6.66 -0.98 7.32 -2 8 C-3.19232613 10.05003955 -3.19232613 10.05003955 -4 12 C-4.37096774 6.43548387 -4.37096774 6.43548387 -2.5625 4.3125 C-1.7890625 3.6628125 -1.7890625 3.6628125 -1 3 C-0.67 2.01 -0.34 1.02 0 0 Z " fill="#504C37" transform="translate(178,22)"/>
<path d="M0 0 C0.66 0.33 1.32 0.66 2 1 C1.25 2.9375 1.25 2.9375 0 5 C-2.125 5.75 -2.125 5.75 -4 6 C-2.25 1.125 -2.25 1.125 0 0 Z " fill="#393521" transform="translate(223,204)"/>
<path d="M0 0 C0.33 0 0.66 0 1 0 C1.08131463 1.43655854 1.13933559 2.8744483 1.1875 4.3125 C1.23970703 5.51326172 1.23970703 5.51326172 1.29296875 6.73828125 C0.93801608 9.47851584 0.10633718 10.29171079 -2 12 C-1 3.42857143 -1 3.42857143 0 0 Z " fill="#E5F0D0" transform="translate(182,144)"/>
<path d="M0 0 C0 2.31 0 4.62 0 7 C-0.66 6.34 -1.32 5.68 -2 5 C-2.99 5 -3.98 5 -5 5 C-4.6875 3.0625 -4.6875 3.0625 -4 1 C-1 0 -1 0 0 0 Z " fill="#8FB35B" transform="translate(101,140)"/>
<path d="M0 0 C0.33 0 0.66 0 1 0 C1 1.98 1 3.96 1 6 C-1.92879371 5.37240135 -4.36095629 4.41377341 -7 3 C-5.5459375 2.814375 -5.5459375 2.814375 -4.0625 2.625 C-2.5465625 2.315625 -2.5465625 2.315625 -1 2 C-0.67 1.34 -0.34 0.68 0 0 Z " fill="#55513D" transform="translate(195,206)"/>
<path d="M0 0 C0.33 0.66 0.66 1.32 1 2 C-0.20784954 5.01962385 -1.99940392 7.45378681 -4 10 C-3.38461538 3.47692308 -3.38461538 3.47692308 -1.4375 1.0625 C-0.7259375 0.5365625 -0.7259375 0.5365625 0 0 Z " fill="#A5BB7C" transform="translate(61,106)"/>
<path d="M0 0 C1.32 0 2.64 0 4 0 C4.33 1.32 4.66 2.64 5 4 C3.35 4 1.7 4 0 4 C0 2.68 0 1.36 0 0 Z " fill="#46432F" transform="translate(137,213)"/>
<path d="M0 0 C0.66 0.33 1.32 0.66 2 1 C2 3.31 2 5.62 2 8 C1.67 7.34 1.34 6.68 1 6 C0.34 6 -0.32 6 -1 6 C-1.33 4.68 -1.66 3.36 -2 2 C-1.34 2 -0.68 2 0 2 C0 1.34 0 0.68 0 0 Z " fill="#2C2A14" transform="translate(72,204)"/>
<path d="M0 0 C0.66 0 1.32 0 2 0 C2 2.64 2 5.28 2 8 C1.01 7.34 0.02 6.68 -1 6 C-1.25 3.4375 -1.25 3.4375 -1 1 C-0.67 0.67 -0.34 0.34 0 0 Z " fill="#312E1E" transform="translate(138,201)"/>
<path d="M0 0 C1.98 0 3.96 0 6 0 C6 0.99 6 1.98 6 3 C4.02 3 2.04 3 0 3 C0 2.01 0 1.02 0 0 Z " fill="#80AF3D" transform="translate(140,143)"/>
<path d="M0 0 C0.66 0 1.32 0 2 0 C1.1875 2.9375 1.1875 2.9375 0 6 C-0.99 6.33 -1.98 6.66 -3 7 C-1.125 1.125 -1.125 1.125 0 0 Z " fill="#96B16B" transform="translate(101,134)"/>
<path d="M0 0 C3 3.75 3 3.75 3 6 C0.29120665 7.35439668 -2.00933268 7.06501451 -5 7 C-5 6.67 -5 6.34 -5 6 C-3.35 6 -1.7 6 0 6 C0 4.02 0 2.04 0 0 Z " fill="#DCECC0" transform="translate(223,99)"/>
<path d="M0 0 C1.04293785 3.38954801 1.30754089 6.46327974 1 10 C0.01 10.66 -0.98 11.32 -2 12 C-1.85831863 10.56208484 -1.71148957 9.1246763 -1.5625 7.6875 C-1.48128906 6.88699219 -1.40007812 6.08648437 -1.31640625 5.26171875 C-1 3 -1 3 0 0 Z " fill="#5A5943" transform="translate(94,205)"/>
<path d="M0 0 C0.99 0.33 1.98 0.66 3 1 C1.25 3.0625 1.25 3.0625 -1 5 C-3.25 4.75 -3.25 4.75 -5 4 C-4.34 4 -3.68 4 -3 4 C-3 3.34 -3 2.68 -3 2 C-2.01 1.34 -1.02 0.68 0 0 Z " fill="#8DB137" transform="translate(186,174)"/>
<path d="M0 0 C0.33 0 0.66 0 1 0 C1.36923077 5.53846154 1.36923077 5.53846154 -0.5 7.875 C-1.2425 8.431875 -1.2425 8.431875 -2 9 C-1.125 2.25 -1.125 2.25 0 0 Z " fill="#A6BD5E" transform="translate(223,160)"/>
<path d="M0 0 C2 3.75 2 3.75 2 6 C2.99 6 3.98 6 5 6 C5 6.66 5 7.32 5 8 C3.35 7.67 1.7 7.34 0 7 C0 4.69 0 2.38 0 0 Z " fill="#36321B" transform="translate(151,28)"/>
</svg>
